<svg id="Layer_1" data-name="Layer 1" xmlns="http://www.w3.org/2000/svg" viewBox="0 0 507.68 235.66"><defs><style>.cls-1{fill:#fff;}.cls-2{fill:#7cbfb2;}.cls-3{fill:#5bb3a2;}</style></defs><title>logofrontpage-color</title><path class="cls-1" d="M353.5,233.24h21.7a29.12,29.12,0,0,0,7-.78,16.13,16.13,0,0,0,5.41-2.35,10.64,10.64,0,0,0,3.46-3.92,12,12,0,0,0,1.2-5.49v-.13a10.43,10.43,0,0,0-2.27-7.15,15.44,15.44,0,0,0-6.24-4.08,12.52,12.52,0,0,0,2.3-1.57,10.13,10.13,0,0,0,1.88-2.12,10.93,10.93,0,0,0,1.3-2.71,11.41,11.41,0,0,0,.48-3.46v-.13a10.55,10.55,0,0,0-3.13-7.77q-4-4-11.92-4H363l-9.5,9.64Zm9.79-36.88h9.92a8.4,8.4,0,0,1,4.9,1.21,4,4,0,0,1,1.7,3.49v.13a4,4,0,0,1-2,3.69,10.44,10.44,0,0,1-5.28,1.14h-9.28Zm0,18h11.62c2.61,0,4.51.45,5.67,1.34a4.3,4.3,0,0,1,1.76,3.62v.13a4.13,4.13,0,0,1-1.89,3.76,9.67,9.67,0,0,1-5.22,1.21H363.29Z" transform="translate(-212.97 -79.19)"/><path class="cls-2" d="M432,215.93a15.21,15.21,0,0,1-1-5.55v-.13a15,15,0,0,1,1-5.51,14.48,14.48,0,0,1,2.81-4.54,12.8,12.8,0,0,1,4.31-3.07,13.67,13.67,0,0,1,5.58-1.11,13.36,13.36,0,0,1,5.55,1.14,14,14,0,0,1,3,1.93l7-7a24.7,24.7,0,0,0-5.74-3.47,26.46,26.46,0,0,0-19.49,0,23.37,23.37,0,0,0-12.76,12.6,23,23,0,0,0-1.83,9.17v.13a23.46,23.46,0,0,0,1.79,9.17,22.43,22.43,0,0,0,4.1,6.33l7.19-7.19A14,14,0,0,1,432,215.93Z" transform="translate(-212.97 -79.19)"/><path class="cls-1" d="M457.5,204.84a15.12,15.12,0,0,1,1,5.55v.13a14.85,14.85,0,0,1-1,5.51,14.26,14.26,0,0,1-2.81,4.54,12.66,12.66,0,0,1-4.34,3.07,13.7,13.7,0,0,1-5.55,1.11,13.34,13.34,0,0,1-5.58-1.14,14,14,0,0,1-1.77-1l-7.05,7.05a25.86,25.86,0,0,0,24,2.51,23.49,23.49,0,0,0,7.7-5.09,23.76,23.76,0,0,0,5.06-7.51,23.21,23.21,0,0,0,1.83-9.17v-.13a23.49,23.49,0,0,0-1.8-9.17,22.78,22.78,0,0,0-3.11-5.15l-7.38,7.38A14.18,14.18,0,0,1,457.5,204.84Z" transform="translate(-212.97 -79.19)"/><path class="cls-1" d="M527.66,189.27a27.06,27.06,0,0,0-9.83-1.73H500v45.7h17.82a26.57,26.57,0,0,0,9.83-1.76,23.71,23.71,0,0,0,7.7-4.83,21.37,21.37,0,0,0,5-7.25,23,23,0,0,0,1.76-9v-.13a22.73,22.73,0,0,0-1.76-9,21.51,21.51,0,0,0-5-7.21A23.28,23.28,0,0,0,527.66,189.27Zm3.95,21.25a14.47,14.47,0,0,1-1,5.55,13.06,13.06,0,0,1-2.81,4.31,12.07,12.07,0,0,1-4.34,2.81,15.48,15.48,0,0,1-5.62,1h-7.77V196.61h7.77a15,15,0,0,1,5.62,1,12.43,12.43,0,0,1,4.34,2.84,12.88,12.88,0,0,1,2.81,4.37,14.79,14.79,0,0,1,1,5.55Z" transform="translate(-212.97 -79.19)"/><polygon class="cls-1" points="360.33 115.11 360.33 154.04 370.38 154.04 370.38 105.06 360.33 115.11"/><polygon class="cls-1" points="413.92 135.5 435.46 135.5 435.46 126.56 413.92 126.56 413.92 117.29 438.4 117.29 438.4 108.34 403.99 108.34 403.99 154.04 438.72 154.04 438.72 145.1 413.92 145.1 413.92 135.5"/><path class="cls-1" d="M691.56,199.88v-.13A3.48,3.48,0,0,1,693,196.9a7.12,7.12,0,0,1,4.41-1.14,15.38,15.38,0,0,1,5.88,1.21,33.23,33.23,0,0,1,6,3.3l5.22-7.57a26.82,26.82,0,0,0-7.74-4.31,27.4,27.4,0,0,0-9.24-1.5,20.21,20.21,0,0,0-6.45,1,14.65,14.65,0,0,0-5,2.81A12.86,12.86,0,0,0,682.8,195a13.21,13.21,0,0,0-1.17,5.65v.13a13.21,13.21,0,0,0,1.08,5.68,10.41,10.41,0,0,0,3,3.82,17.63,17.63,0,0,0,4.78,2.58,56.63,56.63,0,0,0,6.28,1.89q2.88.72,4.69,1.37a14.44,14.44,0,0,1,2.81,1.31,3.69,3.69,0,0,1,1.38,1.4,4,4,0,0,1,.36,1.73v.13a3.6,3.6,0,0,1-1.73,3.17,8.78,8.78,0,0,1-4.87,1.14,17.21,17.21,0,0,1-7.21-1.5,30,30,0,0,1-6.43-4l-5.94,7.12a27.17,27.17,0,0,0,9.14,5.52,30.32,30.32,0,0,0,10.25,1.8,22.85,22.85,0,0,0,6.78-.95,15.37,15.37,0,0,0,5.26-2.74,12.44,12.44,0,0,0,3.44-4.44,14.19,14.19,0,0,0,1.23-6v-.13a12.66,12.66,0,0,0-1-5.16,10.39,10.39,0,0,0-2.81-3.75,17.31,17.31,0,0,0-4.59-2.74,46,46,0,0,0-6.18-2.06q-2.95-.78-4.88-1.37a14.45,14.45,0,0,1-3-1.24" transform="translate(-212.97 -79.19)"/><polygon class="cls-2" points="3.39 132.88 32.64 132.88 32.64 154.29 36.03 154.29 36.03 108.6 32.64 108.6 32.64 129.81 3.39 129.81 3.39 108.6 0 108.6 0 154.29 3.39 154.29 3.39 132.88"/><polygon class="cls-2" points="60.82 111.16 60.82 154.29 64.21 154.29 64.21 107.76 60.82 111.16"/><polygon class="cls-2" points="119.89 108.6 84.64 108.6 84.64 111.67 100.57 111.67 100.57 157.82 103.96 154.39 103.96 111.67 119.89 111.67 119.89 108.6"/><path class="cls-1" d="M314.39,260.79h1.86v11.63h16V260.79h1.86v25h-1.86V274.09h-16v11.73h-1.86Z" transform="translate(-212.97 -79.19)"/><path class="cls-1" d="M348.81,286.25a8.83,8.83,0,0,1-3.42-.68,8.68,8.68,0,0,1-2.87-1.93,9.14,9.14,0,0,1-2-3,10.19,10.19,0,0,1-.72-3.9v-.07a10.29,10.29,0,0,1,.66-3.7,9.52,9.52,0,0,1,1.82-3,8.69,8.69,0,0,1,2.74-2,7.86,7.86,0,0,1,3.43-.75,8,8,0,0,1,3.47.73,7.82,7.82,0,0,1,2.63,2,9.21,9.21,0,0,1,1.68,3,11.65,11.65,0,0,1,.59,3.77v.38a2.24,2.24,0,0,1,0,.34H341.7a7.93,7.93,0,0,0,.75,3,7.83,7.83,0,0,0,1.61,2.24,6.64,6.64,0,0,0,2.21,1.41,7.12,7.12,0,0,0,2.6.48,7.43,7.43,0,0,0,3.64-.82,10.76,10.76,0,0,0,2.64-2l1.22,1.07a12.73,12.73,0,0,1-3.17,2.49A9,9,0,0,1,348.81,286.25Zm6.2-10.41a10.41,10.41,0,0,0-.56-2.66,7.42,7.42,0,0,0-1.26-2.25,6,6,0,0,0-2-1.57,6.53,6.53,0,0,0-5.31-.05,6.36,6.36,0,0,0-2.06,1.48,8,8,0,0,0-1.45,2.25,8.42,8.42,0,0,0-.68,2.81Z" transform="translate(-212.97 -79.19)"/><path class="cls-1" d="M367.21,286.25a9.21,9.21,0,0,1-2.54-.36,7.26,7.26,0,0,1-2.25-1.07,5.69,5.69,0,0,1-1.63-1.79,4.88,4.88,0,0,1-.63-2.5v-.07a5.32,5.32,0,0,1,.59-2.54,5.41,5.41,0,0,1,1.63-1.86,7.56,7.56,0,0,1,2.5-1.14,12.58,12.58,0,0,1,3.25-.39,22.17,22.17,0,0,1,3.33.21,24.89,24.89,0,0,1,2.72.57v-.78a5.23,5.23,0,0,0-1.59-4.16,6.51,6.51,0,0,0-4.42-1.39,10.87,10.87,0,0,0-3.08.41,15.1,15.1,0,0,0-2.65,1.06l-.64-1.54a18.56,18.56,0,0,1,3-1.17,12.48,12.48,0,0,1,3.43-.44,7.79,7.79,0,0,1,5.76,2,7,7,0,0,1,1.86,5.15v11.37h-1.72v-3a9.1,9.1,0,0,1-1.13,1.27,7.68,7.68,0,0,1-1.52,1.11,8.72,8.72,0,0,1-1.95.79A8.86,8.86,0,0,1,367.21,286.25Zm.11-1.68a8.48,8.48,0,0,0,2.65-.41,7.3,7.3,0,0,0,2.2-1.14,5.49,5.49,0,0,0,1.5-1.76,4.75,4.75,0,0,0,.55-2.28v-2.07q-1.14-.29-2.68-.55a20.68,20.68,0,0,0-3.5-.27,7.36,7.36,0,0,0-4.45,1.16,3.65,3.65,0,0,0-1.56,3.08v.07a3.54,3.54,0,0,0,.43,1.76,4,4,0,0,0,1.16,1.3,5.48,5.48,0,0,0,1.7.82A7,7,0,0,0,367.32,284.57Z" transform="translate(-212.97 -79.19)"/><path class="cls-1" d="M381.94,259.71h1.75v26.11h-1.75Z" transform="translate(-212.97 -79.19)"/><path class="cls-1" d="M395.8,286.15a6.79,6.79,0,0,1-2-.29,4.2,4.2,0,0,1-2.72-2.49,5.8,5.8,0,0,1-.39-2.24V269.19H388v-1.61h2.65v-5.83h1.75v5.83h6.4v1.61h-6.4v11.74a3.27,3.27,0,0,0,1,2.75,4.19,4.19,0,0,0,2.63.78,5.94,5.94,0,0,0,1.29-.13,8.08,8.08,0,0,0,1.4-.47v1.64a7.64,7.64,0,0,1-1.41.48A6.92,6.92,0,0,1,395.8,286.15Z" transform="translate(-212.97 -79.19)"/><path class="cls-1" d="M403.18,259.71h1.75V271a8.5,8.5,0,0,1,2.5-2.72,6.93,6.93,0,0,1,4.08-1.11,8.07,8.07,0,0,1,3.08.55,6.42,6.42,0,0,1,3.74,3.93,9.08,9.08,0,0,1,.48,3v11.16h-1.75V275a6.58,6.58,0,0,0-1.5-4.52,5.43,5.43,0,0,0-4.29-1.7,6.37,6.37,0,0,0-2.5.48,6.21,6.21,0,0,0-2,1.34,6.09,6.09,0,0,0-1.34,2.06,7,7,0,0,0-.48,2.63v10.55h-1.75Z" transform="translate(-212.97 -79.19)"/><path class="cls-1" d="M425.85,291.65a7.92,7.92,0,0,1-1.86-.2,11.17,11.17,0,0,1-1.75-.6l.61-1.56a6.46,6.46,0,0,0,1.4.52A7.61,7.61,0,0,0,426,290a4,4,0,0,0,1.32-.21,3.18,3.18,0,0,0,1.14-.73,6.75,6.75,0,0,0,1-1.34,15.78,15.78,0,0,0,1-2l-8.76-18.1h2l7.58,16.31,6.58-16.31h1.93l-7.9,18.88a10.26,10.26,0,0,1-2.66,4A5.3,5.3,0,0,1,425.85,291.65Z" transform="translate(-212.97 -79.19)"/><path class="cls-1" d="M441.59,283.08a1.43,1.43,0,0,1,1.48,1.49,1.42,1.42,0,0,1-.42,1,1.44,1.44,0,0,1-1.07.42,1.43,1.43,0,0,1-1.46-1.46,1.45,1.45,0,0,1,.42-1.07A1.42,1.42,0,0,1,441.59,283.08Z" transform="translate(-212.97 -79.19)"/><path class="cls-1" d="M459.61,260.79h1.86v25h-1.86Z" transform="translate(-212.97 -79.19)"/><path class="cls-1" d="M468.36,267.58h1.75V271a8.51,8.51,0,0,1,2.5-2.72,6.93,6.93,0,0,1,4.08-1.11,8.07,8.07,0,0,1,3.08.55,6.52,6.52,0,0,1,2.31,1.56,6.59,6.59,0,0,1,1.43,2.38,9.1,9.1,0,0,1,.48,3v11.16h-1.75V275a6.59,6.59,0,0,0-1.5-4.52,5.43,5.43,0,0,0-4.29-1.7,6.37,6.37,0,0,0-2.5.48,6.21,6.21,0,0,0-2,1.34,6.08,6.08,0,0,0-1.34,2.06,7,7,0,0,0-.48,2.63v10.55h-1.75Z" transform="translate(-212.97 -79.19)"/><path class="cls-1" d="M495.59,286.18a11.37,11.37,0,0,1-4-.75,12.36,12.36,0,0,1-3.47-1.93l1-1.39a12.5,12.5,0,0,0,3.15,1.77,9.49,9.49,0,0,0,3.4.63,5.16,5.16,0,0,0,3.13-.93A3,3,0,0,0,500.1,281V281a2.34,2.34,0,0,0-.39-1.36,3.66,3.66,0,0,0-1.07-1,7.06,7.06,0,0,0-1.54-.71q-.86-.28-1.82-.57t-2.24-.68a9,9,0,0,1-2-.91,4.71,4.71,0,0,1-1.45-1.37,3.55,3.55,0,0,1-.55-2v-.07a4.5,4.5,0,0,1,.45-2,5,5,0,0,1,1.23-1.59,5.61,5.61,0,0,1,1.9-1.05,7.55,7.55,0,0,1,2.43-.37,11.17,11.17,0,0,1,3.38.55,11.46,11.46,0,0,1,3.09,1.49l-.93,1.47a12.12,12.12,0,0,0-2.7-1.32,8.9,8.9,0,0,0-2.92-.5,4.66,4.66,0,0,0-3,.91,2.8,2.8,0,0,0-1.13,2.27v.07a2.06,2.06,0,0,0,.43,1.3,3.69,3.69,0,0,0,1.13.95,9,9,0,0,0,1.63.7q.93.3,1.89.59t2.18.7a8.13,8.13,0,0,1,1.93,1,4.86,4.86,0,0,1,1.38,1.41,3.74,3.74,0,0,1,.52,2v.07a4.84,4.84,0,0,1-1.82,3.87,6.23,6.23,0,0,1-2,1.07A7.92,7.92,0,0,1,495.59,286.18Z" transform="translate(-212.97 -79.19)"/><path class="cls-1" d="M506.81,267.58h1.75v4.08a12.76,12.76,0,0,1,1.32-1.72,9,9,0,0,1,1.66-1.43,8.51,8.51,0,0,1,2-1,7.81,7.81,0,0,1,2.49-.38,8.57,8.57,0,0,1,3.24.64,8.77,8.77,0,0,1,2.84,1.86,9.24,9.24,0,0,1,2,3,9.93,9.93,0,0,1,.77,4v.07a9.93,9.93,0,0,1-.77,4,9.46,9.46,0,0,1-2,3,8.87,8.87,0,0,1-2.84,1.9,8.52,8.52,0,0,1-5.74.3,7.93,7.93,0,0,1-2.06-1,9.26,9.26,0,0,1-1.64-1.39,12.86,12.86,0,0,1-1.31-1.65v9.66h-1.75Zm9.1,17a7.35,7.35,0,0,0,2.81-.54A6.65,6.65,0,0,0,521,282.5a7.19,7.19,0,0,0,1.52-2.45,9.09,9.09,0,0,0,.56-3.27v-.07a8.88,8.88,0,0,0-.57-3.25,7.4,7.4,0,0,0-1.56-2.49,7,7,0,0,0-5-2.13,7,7,0,0,0-2.78.57,7.52,7.52,0,0,0-2.38,1.61,8,8,0,0,0-1.67,2.47,7.85,7.85,0,0,0-.63,3.18v.07a8,8,0,0,0,.63,3.2,7.58,7.58,0,0,0,4.05,4.06A7,7,0,0,0,515.91,284.57Z" transform="translate(-212.97 -79.19)"/><path class="cls-1" d="M529.82,260.43H532v2.4h-2.18Zm.21,7.15h1.75v18.24H530Z" transform="translate(-212.97 -79.19)"/><path class="cls-1" d="M538,267.58h1.75v5.19a10.3,10.3,0,0,1,1.36-2.25,9,9,0,0,1,1.86-1.77,7.92,7.92,0,0,1,2.27-1.11,8.14,8.14,0,0,1,2.59-.34v1.93h-.18a7.8,7.8,0,0,0-3,.59,7.18,7.18,0,0,0-2.52,1.75,8.55,8.55,0,0,0-1.74,2.86,11,11,0,0,0-.64,3.92v7.48H538Z" transform="translate(-212.97 -79.19)"/><path class="cls-1" d="M558.86,286.25a8.83,8.83,0,0,1-3.42-.68,8.68,8.68,0,0,1-2.87-1.93,9.13,9.13,0,0,1-2-3,10.19,10.19,0,0,1-.72-3.9v-.07a10.29,10.29,0,0,1,.66-3.7,9.52,9.52,0,0,1,1.82-3,8.71,8.71,0,0,1,2.74-2,7.86,7.86,0,0,1,3.43-.75,8,8,0,0,1,3.47.73,7.83,7.83,0,0,1,2.63,2,9.21,9.21,0,0,1,1.68,3,11.62,11.62,0,0,1,.59,3.77v.38a2.25,2.25,0,0,1,0,.34H551.76a7.79,7.79,0,0,0,2.37,5.27,6.64,6.64,0,0,0,2.21,1.41,7.12,7.12,0,0,0,2.6.48,7.43,7.43,0,0,0,3.64-.82,10.76,10.76,0,0,0,2.64-2l1.22,1.07a12.71,12.71,0,0,1-3.17,2.49A9,9,0,0,1,558.86,286.25Zm6.2-10.41a10.43,10.43,0,0,0-.56-2.66,7.43,7.43,0,0,0-1.25-2.25,6,6,0,0,0-2-1.57,6.53,6.53,0,0,0-5.31-.05,6.37,6.37,0,0,0-2.06,1.48,8,8,0,0,0-1.45,2.25,8.41,8.41,0,0,0-.68,2.81Z" transform="translate(-212.97 -79.19)"/><path class="cls-1" d="M579.54,286.25a8.56,8.56,0,0,1-3.24-.64,8.77,8.77,0,0,1-2.84-1.86,9.24,9.24,0,0,1-2-3,9.91,9.91,0,0,1-.77-4v-.07a9.92,9.92,0,0,1,.77-4,9.46,9.46,0,0,1,2-3,8.87,8.87,0,0,1,2.84-1.9,8.53,8.53,0,0,1,5.74-.3,8,8,0,0,1,2.06,1,9.31,9.31,0,0,1,1.65,1.4,12.92,12.92,0,0,1,1.3,1.64v-11.8h1.75v26.11H587v-4.08a16.8,16.8,0,0,1-1.34,1.72,8.37,8.37,0,0,1-3.68,2.41A7.83,7.83,0,0,1,579.54,286.25Zm.16-1.68a7,7,0,0,0,2.78-.57,7.51,7.51,0,0,0,2.38-1.61,8,8,0,0,0,1.67-2.47,7.85,7.85,0,0,0,.63-3.18v-.07a8,8,0,0,0-.63-3.2,7.58,7.58,0,0,0-4.05-4.06,7,7,0,0,0-2.78-.57,7.35,7.35,0,0,0-2.81.54,6.6,6.6,0,0,0-2.28,1.54,7.15,7.15,0,0,0-1.52,2.45,9.09,9.09,0,0,0-.56,3.27v.07a8.85,8.85,0,0,0,.57,3.25,7.4,7.4,0,0,0,1.56,2.49,7,7,0,0,0,5,2.13Z" transform="translate(-212.97 -79.19)"/><path class="cls-1" d="M595,283.08a1.43,1.43,0,0,1,1.48,1.49,1.42,1.42,0,0,1-.42,1A1.45,1.45,0,0,1,595,286a1.43,1.43,0,0,1-1.46-1.46,1.45,1.45,0,0,1,.42-1.07A1.42,1.42,0,0,1,595,283.08Z" transform="translate(-212.97 -79.19)"/><path class="cls-1" d="M619.67,262.47h-8.73v-1.68h19.31v1.68h-8.73v23.36h-1.86Z" transform="translate(-212.97 -79.19)"/><path class="cls-1" d="M639.71,286.25a9,9,0,0,1-3.74-.77,9.57,9.57,0,0,1-3-2.06,9.24,9.24,0,0,1-1.95-3,9.6,9.6,0,0,1-.7-3.65v-.07A9.58,9.58,0,0,1,633,270a9.46,9.46,0,0,1,3-2.09,9.1,9.1,0,0,1,3.76-.77,9,9,0,0,1,3.74.77,9.61,9.61,0,0,1,3,2.06,9.29,9.29,0,0,1,2,3,9.6,9.6,0,0,1,.7,3.65v.07a9.57,9.57,0,0,1-2.67,6.69,9.44,9.44,0,0,1-3,2.09A9.08,9.08,0,0,1,639.71,286.25Zm.07-1.68a7.22,7.22,0,0,0,3-.62,7.36,7.36,0,0,0,2.37-1.67,7.61,7.61,0,0,0,1.54-2.48,8.24,8.24,0,0,0,.56-3v-.07a8.25,8.25,0,0,0-.58-3.08,7.69,7.69,0,0,0-1.6-2.51,7.42,7.42,0,0,0-2.41-1.67,7.32,7.32,0,0,0-3-.61,7.21,7.21,0,0,0-3,.62,7.36,7.36,0,0,0-2.37,1.67,7.61,7.61,0,0,0-1.54,2.47,8.24,8.24,0,0,0-.56,3v.07a8.23,8.23,0,0,0,.58,3.08,7.73,7.73,0,0,0,1.6,2.51,7.43,7.43,0,0,0,2.41,1.67A7.32,7.32,0,0,0,639.78,284.57Z" transform="translate(-212.97 -79.19)"/><path class="cls-1" d="M661.08,286.25a8.09,8.09,0,0,1-3.08-.55,6.51,6.51,0,0,1-2.31-1.56,6.58,6.58,0,0,1-1.43-2.38,9.1,9.1,0,0,1-.48-3V267.58h1.75v10.84a6.58,6.58,0,0,0,1.5,4.53,5.43,5.43,0,0,0,4.29,1.7,6.41,6.41,0,0,0,2.49-.48,6.19,6.19,0,0,0,2-1.34,6.07,6.07,0,0,0,1.34-2.06,7,7,0,0,0,.48-2.63V267.58h1.75v18.24h-1.75v-3.4a8.49,8.49,0,0,1-2.5,2.72A6.93,6.93,0,0,1,661.08,286.25Z" transform="translate(-212.97 -79.19)"/><path class="cls-1" d="M683.54,291.62a13.63,13.63,0,0,1-8.39-2.83l1-1.43a11.8,11.8,0,0,0,7.39,2.58,9,9,0,0,0,2.89-.44,6,6,0,0,0,3.75-3.54,8,8,0,0,0,.54-3.07v-2.65a12.38,12.38,0,0,1-1.36,1.61,9.81,9.81,0,0,1-1.68,1.34,8.24,8.24,0,0,1-2.07.93,8.74,8.74,0,0,1-2.5.34,9,9,0,0,1-6-2.34,8.67,8.67,0,0,1-2-2.7,8.11,8.11,0,0,1-.75-3.54v-.07a8.35,8.35,0,0,1,.75-3.58,8.56,8.56,0,0,1,2-2.74,9,9,0,0,1,6-2.34,8.95,8.95,0,0,1,4.61,1.23,8.59,8.59,0,0,1,1.68,1.3,13.18,13.18,0,0,1,1.32,1.54v-3.65h1.75V283a9.56,9.56,0,0,1-.61,3.54,7.71,7.71,0,0,1-1.72,2.65,7.87,7.87,0,0,1-2.89,1.81A10.81,10.81,0,0,1,683.54,291.62Zm-.25-8.83a8.05,8.05,0,0,0,2.8-.5,7.78,7.78,0,0,0,2.42-1.41,7.09,7.09,0,0,0,1.7-2.18,6.19,6.19,0,0,0,.65-2.84v-.07a6.3,6.3,0,0,0-.65-2.86,7,7,0,0,0-1.7-2.2,7.53,7.53,0,0,0-2.42-1.39,8.31,8.31,0,0,0-2.8-.48,7.7,7.7,0,0,0-2.72.48,6.8,6.8,0,0,0-2.26,1.38,6.39,6.39,0,0,0-1.52,2.16,7.1,7.1,0,0,0-.56,2.88v.07a6.86,6.86,0,0,0,.57,2.83,6.78,6.78,0,0,0,1.54,2.2,7.28,7.28,0,0,0,4.95,1.95Z" transform="translate(-212.97 -79.19)"/><path class="cls-1" d="M698.62,259.71h1.75V271a8.51,8.51,0,0,1,2.5-2.72,6.93,6.93,0,0,1,4.08-1.11,8.07,8.07,0,0,1,3.08.55,6.52,6.52,0,0,1,2.31,1.56,6.59,6.59,0,0,1,1.43,2.38,9.1,9.1,0,0,1,.48,3v11.16H712.5V275a6.59,6.59,0,0,0-1.5-4.52,5.43,5.43,0,0,0-4.29-1.7,6.37,6.37,0,0,0-2.5.48,6.21,6.21,0,0,0-2,1.34,6.08,6.08,0,0,0-1.34,2.06,7,7,0,0,0-.48,2.63v10.55h-1.75Z" transform="translate(-212.97 -79.19)"/><path class="cls-1" d="M719.16,283.08a1.43,1.43,0,0,1,1.49,1.49,1.42,1.42,0,0,1-.42,1,1.44,1.44,0,0,1-1.07.42,1.42,1.42,0,0,1-1.46-1.46,1.45,1.45,0,0,1,.42-1.07A1.42,1.42,0,0,1,719.16,283.08Z" transform="translate(-212.97 -79.19)"/><polygon class="cls-3" points="22.56 235.66 51.78 205.96 81.1 176.37 139.9 117.34 198.93 58.54 228.52 29.22 258.22 0 229 29.7 199.68 59.29 140.88 118.32 81.85 177.12 52.26 206.44 22.56 235.66"/></svg>