<svg id="Layer_1" data-name="Layer 1" xmlns="http://www.w3.org/2000/svg" viewBox="0 0 532.65 55.69"><defs><style>.cls-1{fill:#fff;}</style></defs><title>Hitbodies-logos-to-N-basicfiles-08</title><path class="cls-1" d="M183.63,73.49h23a30.84,30.84,0,0,0,7.42-.83,17.08,17.08,0,0,0,5.73-2.49A11.27,11.27,0,0,0,223.42,66a12.65,12.65,0,0,0,1.27-5.81v-.14q0-4.84-2.41-7.57a16.35,16.35,0,0,0-6.6-4.32,13.26,13.26,0,0,0,2.44-1.66,10.73,10.73,0,0,0,2-2.24,11.58,11.58,0,0,0,1.38-2.87,12.08,12.08,0,0,0,.51-3.67v-.14a11.17,11.17,0,0,0-3.31-8.23q-4.27-4.29-12.62-4.29H193.52l-9.9,9.9ZM194,34.43h10.51a8.89,8.89,0,0,1,5.19,1.28,4.28,4.28,0,0,1,1.8,3.7v.14a4.18,4.18,0,0,1-2.08,3.91,11.06,11.06,0,0,1-5.59,1.21H194Zm12.31,19.08c2.76,0,4.77.47,6,1.41a4.56,4.56,0,0,1,1.87,3.84v.14a4.38,4.38,0,0,1-2,4,10.24,10.24,0,0,1-5.53,1.28H194V53.51Z" transform="translate(-34.82 -21.62)"/><path class="cls-1" d="M306,49.16a24.87,24.87,0,0,0-1.9-9.71,24.12,24.12,0,0,0-3.3-5.45L293,41.81a15,15,0,0,1,.8,1.61,16,16,0,0,1,1.07,5.88v.14a15.72,15.72,0,0,1-1.07,5.84,15.1,15.1,0,0,1-3,4.8,13.4,13.4,0,0,1-4.6,3.25,14.51,14.51,0,0,1-5.88,1.18,14.12,14.12,0,0,1-5.91-1.21,14.84,14.84,0,0,1-1.87-1.07l-7.47,7.47a27.39,27.39,0,0,0,25.44,2.66A24.87,24.87,0,0,0,298.67,67,25.16,25.16,0,0,0,304,59,24.58,24.58,0,0,0,306,49.29Z" transform="translate(-34.82 -21.62)"/><path class="cls-1" d="M376.21,32a24.65,24.65,0,0,0-8.16-5.08,28.65,28.65,0,0,0-10.41-1.83H338.78V73.49h18.87a28.13,28.13,0,0,0,10.41-1.87,25.1,25.1,0,0,0,8.16-5.11,22.63,22.63,0,0,0,5.29-7.67,24.3,24.3,0,0,0,1.87-9.54v-.14a24.06,24.06,0,0,0-1.87-9.51A22.77,22.77,0,0,0,376.21,32Zm-4,17.42a15.32,15.32,0,0,1-1.07,5.88,13.83,13.83,0,0,1-3,4.56,12.78,12.78,0,0,1-4.6,3,16.4,16.4,0,0,1-5.95,1h-8.23V34.71h8.23a15.93,15.93,0,0,1,5.95,1.07,13.16,13.16,0,0,1,4.6,3,13.64,13.64,0,0,1,3,4.63,15.66,15.66,0,0,1,1.07,5.88Z" transform="translate(-34.82 -21.62)"/><polygon class="cls-1" points="392.2 0 381.56 10.64 381.56 51.87 392.2 51.87 392.2 0"/><polygon class="cls-1" points="464.58 42.4 438.31 42.4 438.31 32.24 461.12 32.24 461.12 22.77 438.31 22.77 438.31 12.95 464.23 12.95 464.23 3.48 427.8 3.48 427.8 51.87 464.58 51.87 464.58 42.4"/><path class="cls-1" d="M566.17,65.58a15,15,0,0,0,1.31-6.39V59a13.4,13.4,0,0,0-1-5.46,11,11,0,0,0-3-4,18.33,18.33,0,0,0-4.86-2.9,48.75,48.75,0,0,0-6.55-2.18q-3.12-.83-5.16-1.45a15.31,15.31,0,0,1-3.22-1.31,4.07,4.07,0,0,1-1.63-1.56,4.32,4.32,0,0,1-.45-2V38a3.68,3.68,0,0,1,1.55-3,7.54,7.54,0,0,1,4.67-1.21,16.28,16.28,0,0,1,6.22,1.28,35.19,35.19,0,0,1,6.36,3.49l5.53-8A28.4,28.4,0,0,0,557.75,26,29,29,0,0,0,548,24.41a21.4,21.4,0,0,0-6.83,1,15.51,15.51,0,0,0-5.33,3,13.61,13.61,0,0,0-3.47,4.6,14,14,0,0,0-1.24,6v.14a14,14,0,0,0,1.15,6,11,11,0,0,0,3.22,4,18.67,18.67,0,0,0,5.06,2.73,60,60,0,0,0,6.65,2q3.05.76,5,1.45a15.29,15.29,0,0,1,3,1.38,3.91,3.91,0,0,1,1.46,1.49,4.2,4.2,0,0,1,.38,1.83v.14a3.81,3.81,0,0,1-1.83,3.35A9.3,9.3,0,0,1,550,64.78a18.22,18.22,0,0,1-7.64-1.59,31.8,31.8,0,0,1-6.81-4.29l-6.29,7.54a28.77,28.77,0,0,0,9.68,5.84,32.1,32.1,0,0,0,10.86,1.9,24.2,24.2,0,0,0,7.18-1,16.28,16.28,0,0,0,5.57-2.9A13.18,13.18,0,0,0,566.17,65.58Z" transform="translate(-34.82 -21.62)"/><path class="cls-1" d="M268.39,58.23a14.82,14.82,0,0,1-1.66-3.06,16.1,16.1,0,0,1-1.07-5.88v-.14a15.83,15.83,0,0,1,1.07-5.84,15.33,15.33,0,0,1,3-4.8,13.55,13.55,0,0,1,4.57-3.25,14.48,14.48,0,0,1,5.91-1.17A14.15,14.15,0,0,1,286,35.3a14.81,14.81,0,0,1,3.23,2l7.42-7.42a26.15,26.15,0,0,0-6.08-3.68,28,28,0,0,0-20.64,0,24.75,24.75,0,0,0-13.51,13.34,24.41,24.41,0,0,0-1.94,9.71v.14a24.84,24.84,0,0,0,1.9,9.71,23.75,23.75,0,0,0,4.34,6.7Z" transform="translate(-34.82 -21.62)"/><polygon class="cls-1" points="34.57 26.21 3.59 26.21 3.59 3.75 0 3.75 0 52.14 3.59 52.14 3.59 29.46 34.57 29.46 34.57 52.14 38.16 52.14 38.16 3.75 34.57 3.75 34.57 26.21"/><polygon class="cls-1" points="64.4 52.14 68 52.14 68 2.86 64.4 6.46 64.4 52.14"/><polygon class="cls-1" points="126.95 6.99 126.95 3.75 89.63 3.75 89.63 6.99 106.49 6.99 106.49 55.69 110.09 52.09 110.09 6.99 126.95 6.99"/></svg>